<?xml version="1.0" encoding="UTF-8" standalone="no"?>
<svg
   xmlns:dc="http://purl.org/dc/elements/1.1/"
   xmlns:cc="http://creativecommons.org/ns#"
   xmlns:rdf="http://www.w3.org/1999/02/22-rdf-syntax-ns#"
   xmlns:svg="http://www.w3.org/2000/svg"
   xmlns="http://www.w3.org/2000/svg"
   xmlns:sodipodi="http://sodipodi.sourceforge.net/DTD/sodipodi-0.dtd"
   xmlns:inkscape="http://www.inkscape.org/namespaces/inkscape"
   height="24"
   viewBox="0 0 24 24"
   width="24"
   version="1.1"
   id="svg4"
   sodipodi:docname="mic.svg"
   inkscape:version="0.92.2 5c3e80d, 2017-08-06">
  <metadata
     id="metadata10">
    <rdf:RDF>
      <cc:Work
         rdf:about="">
        <dc:format>image/svg+xml</dc:format>
        <dc:type
           rdf:resource="http://purl.org/dc/dcmitype/StillImage" />
      </cc:Work>
    </rdf:RDF>
  </metadata>
  <defs
     id="defs8" />
  <sodipodi:namedview
     pagecolor="#ffffff"
     bordercolor="#666666"
     borderopacity="1"
     objecttolerance="10"
     gridtolerance="10"
     guidetolerance="10"
     inkscape:pageopacity="0"
     inkscape:pageshadow="2"
     inkscape:window-width="776"
     inkscape:window-height="480"
     id="namedview6"
     showgrid="false"
     inkscape:zoom="9.8333333"
     inkscape:cx="12"
     inkscape:cy="12"
     inkscape:window-x="3"
     inkscape:window-y="14"
     inkscape:window-maximized="0"
     inkscape:current-layer="svg4" />
  <path
     class="heroicon-ui"
     d="M13 18.94V21h3a1 1 0 0 1 0 2H8a1 1 0 0 1 0-2h3v-2.06A8 8 0 0 1 4 11a1 1 0 0 1 2 0 6 6 0 1 0 12 0 1 1 0 0 1 2 0 8 8 0 0 1-7 7.94zM12 1a4 4 0 0 1 4 4v6a4 4 0 1 1-8 0V5a4 4 0 0 1 4-4zm0 2a2 2 0 0 0-2 2v6a2 2 0 1 0 4 0V5a2 2 0 0 0-2-2z"
     id="path2"
     style="fill:#b3b3b3" />
</svg>
